<?xml version="1.0" encoding="utf-8"?>
<!-- Uploaded to: SVG Repo, www.svgrepo.com, Generator: SVG Repo Mixer Tools -->
<svg width="800px" height="800px" viewBox="-1.9 0 169.02 169.02" xmlns="http://www.w3.org/2000/svg">

<defs>

<style>.cls-1{fill:#ffffff;}</style>

</defs>

<g id="Layer_2" data-name="Layer 2">

<g id="Layer_1-2" data-name="Layer 1">

<path d="M164.93,72c-7,7.75-17.49,7.78-26.56,11.39v11c8.53,2.48,17.54,4.12,25.63,8.64,1,3.33.1,6.35-1,9.26-2.42,6.42-5,12.79-7.5,19.16-1,2.62-2.12,5.21-3.19,7.82a10,10,0,0,1-9.81-.74c-4.19-2.47-8.46-4.8-12.76-7.06-2.76-1.45-5.54-3-8.53-3l-11.42,10.66c.12,2.56.3,6.22.45,9.89.11,2.57.31,5.15.24,7.72-.18,7.17-2.44,9.9-9.53,10.65-7.39.78-14.83,1.27-22.26,1.52-4.69.16-6-1.29-6.29-6.13-.3-5.7-.24-11.42-.46-17.13-.07-1.95-.49-3.9-.77-5.95l-14.49-7L41.41,146.13a34,34,0,0,1-3.21,2.81c-4.24,2.88-8.19,2.67-11.48-1.16-6.85-8-15.41-14.58-20.36-24.83A75.66,75.66,0,0,1,29,102.52c.51-8.18,1-16.66,1.59-25.5-1.51-2.25-4.33-3-6.93-4.11C17,70.22,10.44,67.45,3.71,65.07.41,63.9-.88,61.66.62,58.54c4-8.23,7.89-16.49,12-24.68a18.9,18.9,0,0,1,3.16-4c2.3-2.55,5.11-3.63,8.5-2.55,3.54,1.13,7.13,2.13,10.56,3.55a94.62,94.62,0,0,1,10,5c3.13,1.76,5.74,1.76,8.56-.77a31.16,31.16,0,0,1,16.35-7.74c.42-4.5.9-8.72,1.18-13C71.4,6.39,74.68,2.42,82.45.72c7.17-1.56,14.25-.28,21.28,1,3.3.59,6.46,1.94,9.78,3,1.33,5.45,1.36,10.58,1.49,15.68.12,4.84,0,9.68,0,14.3L130.4,45c1.65-.77,3.94-1.79,6.19-2.9a31.33,31.33,0,0,1,14-3.55c2.69,0,5.51.64,6.54,3.25,3.78,9.5,8.43,18.8,8,29.44A2.64,2.64,0,0,1,164.93,72ZM33.76,141.26c7.56-7.87,14-15.64,24-19.62,6.14,5.91,12.87,11,21.73,12.82,3,8.61-.93,17.84,2.73,26,8.78,1.25,12,.91,18-2,.11-7.42.23-15.09.34-22.62,4.75-3.44,9.84-5.88,12.58-10.79,3-5.35,7.26-5.8,12.39-3.87,4,1.51,8,3,12,4.58,2.63,1.07,5.16,2.36,7.66,3.52,5.26-5.49,8.06-12.42,8.52-21.08-1.48-.58-3-1.29-4.62-1.78-5.2-1.57-10.45-3-15.63-4.61-4.52-1.42-5.4-2.92-5-7.58.27-2.84.54-5.69.8-8.53s-.65-5.76,1.33-8.58c7.61-4.06,16.68-5,24.46-9A38.43,38.43,0,0,0,148.23,48c-5.23.37-9.63,3.08-14.08,5.63-5,2.85-10.42,2.36-13.28-3a16.46,16.46,0,0,0-9.71-8,21.86,21.86,0,0,1-3.09-1.48c-2.45-1.3-4-3.19-4-6.12,0-3.71.27-7.44,0-11.14-.3-4.47,1.7-9.1-.93-13.4C98.44,9.66,93.73,8.56,89,8c-3.06-.36-6.25-.08-9,2-1,8-.2,16.07-2.64,23.44a8.39,8.39,0,0,1-1.86,1.11c-7.66,1.79-14.77,4.54-19.84,11a5.21,5.21,0,0,1-5.49,1.63,35.82,35.82,0,0,1-7.29-2.34c-4.43-2-8.71-4.32-13.13-6.37C27.44,37.48,25,36.75,22.88,36A51.16,51.16,0,0,0,11.4,59.45c2.74,1.11,5.61,2.29,8.5,3.43,4,1.58,8,3,12,4.72,7.26,3.11,8.31,4.72,7.93,12.25-.44,8.57-1.08,17.12-.18,25.7a9.32,9.32,0,0,1-.65,2.7c-4.41,2.42-8.87,4.94-13.4,7.34-3.61,1.93-6.79,4.19-8.19,8.61C21.76,130.48,27.22,135.79,33.76,141.26Z"/>

<path class="cls-1" d="M33.76,141.26c-6.54-5.47-12-10.78-16.38-17.06,1.4-4.42,4.58-6.68,8.19-8.61,4.53-2.4,9-4.92,13.4-7.34a9.32,9.32,0,0,0,.65-2.7c-.9-8.58-.26-17.13.18-25.7.38-7.53-.67-9.14-7.93-12.25-3.94-1.69-8-3.14-12-4.72-2.89-1.14-5.76-2.32-8.5-3.43A51.16,51.16,0,0,1,22.88,36c2.14.79,4.56,1.52,6.83,2.57,4.42,2,8.7,4.38,13.13,6.37a35.82,35.82,0,0,0,7.29,2.34,5.21,5.21,0,0,0,5.49-1.63c5.07-6.48,12.18-9.23,19.84-11a8.39,8.39,0,0,0,1.86-1.11C79.76,26.11,79,18,80,10c2.74-2.12,5.93-2.4,9-2,4.78.56,9.49,1.66,14.23,2.53,2.63,4.3.63,8.93.93,13.4.26,3.7,0,7.43,0,11.14,0,2.93,1.52,4.82,4,6.12a21.86,21.86,0,0,0,3.09,1.48,16.46,16.46,0,0,1,9.71,8c2.86,5.36,8.31,5.85,13.28,3,4.45-2.55,8.85-5.26,14.08-5.63A38.43,38.43,0,0,1,155,68.17c-7.78,4-16.85,4.91-24.46,9-2,2.82-1.08,5.78-1.33,8.58s-.53,5.69-.8,8.53c-.44,4.66.44,6.16,5,7.58,5.18,1.64,10.43,3,15.63,4.61,1.6.49,3.14,1.2,4.62,1.78-.46,8.66-3.26,15.59-8.52,21.08-2.5-1.16-5-2.45-7.66-3.52-4-1.61-8-3.07-12-4.58-5.13-1.93-9.4-1.48-12.39,3.87-2.74,4.91-7.83,7.35-12.58,10.79-.11,7.53-.23,15.2-.34,22.62-6,2.93-9.18,3.27-18,2-3.66-8.2.22-17.43-2.73-26-8.86-1.8-15.59-6.91-21.73-12.82C47.76,125.62,41.32,133.39,33.76,141.26Zm55-76.63A24.46,24.46,0,0,0,64,91.38a16.6,16.6,0,0,0,6.19,11.79c10.08,8.43,26.19,4.86,32-7,1.25-2.56,2.4-5.18,3.41-7.84C109.58,77.79,104.6,64.19,88.71,64.63Z"/>

<path d="M88.71,64.63c15.89-.44,20.87,13.16,16.87,23.66-1,2.66-2.16,5.28-3.41,7.84-5.8,11.9-21.91,15.47-32,7A16.6,16.6,0,0,1,64,91.38,24.46,24.46,0,0,1,88.71,64.63Zm6.87,17.09A39.39,39.39,0,0,0,94.4,76.4a4.72,4.72,0,0,0-3.72-3.21c-7-1.41-11.51.8-14.79,7.19a16.91,16.91,0,0,0-1,12.54c1.46,5.32,8.16,9.58,14.41,4.6C93.87,93.83,95.45,88.78,95.58,81.72Z"/>

<path class="cls-1" d="M95.58,81.72c-.13,7.06-1.71,12.11-6.33,15.8-6.25,5-13,.72-14.41-4.6a16.91,16.91,0,0,1,1-12.54c3.28-6.39,7.77-8.6,14.79-7.19A4.72,4.72,0,0,1,94.4,76.4,39.39,39.39,0,0,1,95.58,81.72Z"/>

</g>

</g>

</svg>